<svg width="430" height="932" viewBox="0 0 430 932" fill="none" xmlns="http://www.w3.org/2000/svg">
  <rect width="430" height="932" rx="36" fill="#09090D"/>
  <rect x="84" y="16" width="262" height="34" rx="17" fill="#12121A"/>
  <text x="32" y="56" fill="#FFFFFF" font-family="Arial, sans-serif" font-size="20" font-weight="700">10:27</text>
  <text x="137" y="111" fill="#FFFFFF" font-family="Arial, sans-serif" font-size="30" font-weight="800">Calendar View</text>
  <text x="120" y="146" fill="#9FA3B7" font-family="Arial, sans-serif" font-size="16">Mood, activities, and goals by day</text>

  <rect x="24" y="184" width="382" height="416" rx="28" fill="#1A1B25" stroke="#2A2D3B"/>
  <text x="48" y="224" fill="#FFFFFF" font-family="Arial, sans-serif" font-size="30" font-weight="800">July 2026</text>
  <text x="48" y="255" fill="#A2A7BC" font-family="Arial, sans-serif" font-size="16">Choose a month and review your rhythm</text>

  <g fill="#71788F" font-family="Arial, sans-serif" font-size="15" font-weight="700">
    <text x="50" y="296">Mon</text>
    <text x="103" y="296">Tue</text>
    <text x="156" y="296">Wed</text>
    <text x="209" y="296">Thu</text>
    <text x="262" y="296">Fri</text>
    <text x="315" y="296">Sat</text>
    <text x="366" y="296">Sun</text>
  </g>

  <g font-family="Arial, sans-serif" font-size="16" font-weight="700" fill="#FFFFFF">
    <rect x="44" y="314" width="42" height="42" rx="21" fill="#2B2E3E"/><text x="58" y="340">1</text>
    <rect x="97" y="314" width="42" height="42" rx="21" fill="#2B2E3E"/><text x="111" y="340">2</text>
    <rect x="150" y="314" width="42" height="42" rx="21" fill="#3A472D"/><text x="164" y="340">3</text>
    <rect x="203" y="314" width="42" height="42" rx="21" fill="#4D3A23"/><text x="217" y="340">4</text>
    <rect x="256" y="314" width="42" height="42" rx="21" fill="#2B2E3E"/><text x="270" y="340">5</text>
    <rect x="309" y="314" width="42" height="42" rx="21" fill="#22364E"/><text x="323" y="340">6</text>
    <rect x="362" y="314" width="42" height="42" rx="21" fill="#2B2E3E"/><text x="376" y="340">7</text>

    <rect x="44" y="372" width="42" height="42" rx="21" fill="#2B2E3E"/><text x="58" y="398">8</text>
    <rect x="97" y="372" width="42" height="42" rx="21" fill="#3A472D"/><text x="111" y="398">9</text>
    <rect x="150" y="372" width="42" height="42" rx="21" fill="#2B2E3E"/><text x="160" y="398">10</text>
    <rect x="203" y="372" width="42" height="42" rx="21" fill="#22364E"/><text x="213" y="398">11</text>
    <rect x="256" y="372" width="42" height="42" rx="21" fill="#4D3A23"/><text x="266" y="398">12</text>
    <rect x="309" y="372" width="42" height="42" rx="21" fill="#3A472D"/><text x="319" y="398">13</text>
    <rect x="362" y="372" width="42" height="42" rx="21" fill="#2B2E3E"/><text x="372" y="398">14</text>

    <rect x="44" y="430" width="42" height="42" rx="21" fill="#8D6BEA"/><text x="54" y="456">15</text>
    <rect x="97" y="430" width="42" height="42" rx="21" fill="#2B2E3E"/><text x="107" y="456">16</text>
    <rect x="150" y="430" width="42" height="42" rx="21" fill="#4D3A23"/><text x="160" y="456">17</text>
    <rect x="203" y="430" width="42" height="42" rx="21" fill="#2B2E3E"/><text x="213" y="456">18</text>
    <rect x="256" y="430" width="42" height="42" rx="21" fill="#22364E"/><text x="266" y="456">19</text>
    <rect x="309" y="430" width="42" height="42" rx="21" fill="#3A472D"/><text x="319" y="456">20</text>
    <rect x="362" y="430" width="42" height="42" rx="21" fill="#2B2E3E"/><text x="372" y="456">21</text>
  </g>

  <circle cx="65" cy="352" r="4" fill="#A2A7BC"/>
  <circle cx="118" cy="410" r="4" fill="#7EE787"/>
  <circle cx="224" cy="352" r="4" fill="#F4C84C"/>
  <circle cx="330" cy="410" r="4" fill="#7EB8FF"/>
  <circle cx="277" cy="468" r="4" fill="#F08E44"/>
  <circle cx="65" cy="468" r="4" fill="#FFFFFF"/>

  <rect x="48" y="512" width="334" height="64" rx="22" fill="#232536"/>
  <text x="70" y="550" fill="#FFFFFF" font-family="Arial, sans-serif" font-size="20" font-weight="700">Selected Day: July 15</text>
  <text x="70" y="573" fill="#A2A7BC" font-family="Arial, sans-serif" font-size="15">Mood: Normal  •  Goal done  •  Activity: Reading</text>

  <rect x="24" y="624" width="382" height="230" rx="28" fill="#1A1B25" stroke="#2A2D3B"/>
  <text x="48" y="664" fill="#FFFFFF" font-family="Arial, sans-serif" font-size="30" font-weight="800">Filters</text>
  <rect x="48" y="688" width="96" height="44" rx="22" fill="#8D6BEA"/>
  <text x="74" y="716" fill="#FFFFFF" font-family="Arial, sans-serif" font-size="18" font-weight="700">Moods</text>
  <rect x="156" y="688" width="110" height="44" rx="22" fill="#232536"/>
  <text x="184" y="716" fill="#FFFFFF" font-family="Arial, sans-serif" font-size="18" font-weight="700">Activities</text>
  <rect x="278" y="688" width="88" height="44" rx="22" fill="#232536"/>
  <text x="304" y="716" fill="#FFFFFF" font-family="Arial, sans-serif" font-size="18" font-weight="700">Goals</text>

  <rect x="48" y="754" width="334" height="72" rx="22" fill="#232536"/>
  <text x="70" y="788" fill="#FFFFFF" font-family="Arial, sans-serif" font-size="18" font-weight="700">Monthly insight</text>
  <text x="70" y="812" fill="#A2A7BC" font-family="Arial, sans-serif" font-size="15">12 active days • 19 entries • calm streak building</text>

  <rect x="36" y="884" width="280" height="28" rx="14" fill="#F2F2F7"/>
</svg>
