<svg width="430" height="932" viewBox="0 0 430 932" fill="none" xmlns="http://www.w3.org/2000/svg">
  <rect width="430" height="932" rx="36" fill="#09090D"/>
  <rect x="84" y="16" width="262" height="34" rx="17" fill="#12121A"/>
  <text x="32" y="56" fill="#FFFFFF" font-family="Arial, sans-serif" font-size="20" font-weight="700">10:27</text>
  <text x="146" y="111" fill="#FFFFFF" font-family="Arial, sans-serif" font-size="30" font-weight="800">Felix Diary</text>
  <text x="86" y="146" fill="#9FA3B7" font-family="Arial, sans-serif" font-size="16">A cozy emotion journal with goals and cat stickers</text>

  <rect x="24" y="184" width="382" height="144" rx="28" fill="#1A1B25" stroke="#2A2D3B"/>
  <text x="52" y="220" fill="#C9CDD9" font-family="Arial, sans-serif" font-size="17">July 2026</text>
  <text x="52" y="260" fill="#FFFFFF" font-family="Arial, sans-serif" font-size="34" font-weight="800">How was your day?</text>
  <text x="52" y="295" fill="#A2A7BC" font-family="Arial, sans-serif" font-size="17">Track mood, goals, and little moments with Felix.</text>
  <circle cx="360" cy="236" r="26" fill="#8D6BEA"/>
  <text x="348" y="244" fill="#FFFFFF" font-family="Arial, sans-serif" font-size="26">+</text>

  <rect x="24" y="352" width="382" height="138" rx="28" fill="#1A1B25" stroke="#2A2D3B"/>
  <circle cx="74" cy="408" r="34" fill="#263529"/>
  <text x="57" y="418" fill="#7EE787" font-family="Arial, sans-serif" font-size="26">☺</text>
  <text x="122" y="396" fill="#FFFFFF" font-family="Arial, sans-serif" font-size="16" font-weight="700">Today, July 6</text>
  <text x="122" y="431" fill="#F4C84C" font-family="Arial, sans-serif" font-size="34" font-weight="800">Normal</text>
  <text x="122" y="465" fill="#A2A7BC" font-family="Arial, sans-serif" font-size="16">Mood: 7/10  •  Walk  •  Tea  •  “A calm productive day.”</text>

  <rect x="24" y="512" width="382" height="168" rx="28" fill="#1A1B25" stroke="#2A2D3B"/>
  <text x="48" y="550" fill="#FFFFFF" font-family="Arial, sans-serif" font-size="28" font-weight="800">Goals</text>
  <rect x="48" y="575" width="334" height="40" rx="20" fill="#232536"/>
  <circle cx="72" cy="595" r="12" fill="#65C466"/>
  <path d="M67 595L71 599L78 590" stroke="#0D1117" stroke-width="3" stroke-linecap="round" stroke-linejoin="round"/>
  <text x="96" y="601" fill="#FFFFFF" font-family="Arial, sans-serif" font-size="17">Drink water</text>
  <rect x="48" y="624" width="334" height="40" rx="20" fill="#232536"/>
  <circle cx="72" cy="644" r="12" fill="#2B2E3E"/>
  <text x="96" y="650" fill="#FFFFFF" font-family="Arial, sans-serif" font-size="17">Evening walk with Felix</text>

  <rect x="24" y="702" width="382" height="168" rx="28" fill="#1A1B25" stroke="#2A2D3B"/>
  <text x="48" y="740" fill="#FFFFFF" font-family="Arial, sans-serif" font-size="28" font-weight="800">Recent entries</text>
  <rect x="48" y="764" width="334" height="80" rx="22" fill="#232536"/>
  <circle cx="84" cy="804" r="24" fill="#513A1E"/>
  <text x="72" y="812" fill="#FFC86A" font-family="Arial, sans-serif" font-size="20">🐱</text>
  <text x="118" y="792" fill="#FFFFFF" font-family="Arial, sans-serif" font-size="17" font-weight="700">A soft, peaceful day</text>
  <text x="118" y="819" fill="#A2A7BC" font-family="Arial, sans-serif" font-size="15">Small wins, tea, and a clear mind.</text>

  <rect x="36" y="884" width="280" height="28" rx="14" fill="#F2F2F7"/>
</svg>
