<svg width="430" height="932" viewBox="0 0 430 932" fill="none" xmlns="http://www.w3.org/2000/svg">
  <rect width="430" height="932" rx="36" fill="#09090D"/>
  <rect x="84" y="16" width="262" height="34" rx="17" fill="#12121A"/>
  <text x="32" y="56" fill="#FFFFFF" font-family="Arial, sans-serif" font-size="20" font-weight="700">10:27</text>
  <text x="128" y="111" fill="#FFFFFF" font-family="Arial, sans-serif" font-size="30" font-weight="800">Monthly Stats</text>
  <text x="151" y="146" fill="#9FA3B7" font-family="Arial, sans-serif" font-size="16">Mood patterns and activity trends</text>

  <rect x="24" y="184" width="382" height="286" rx="28" fill="#1A1B25" stroke="#2A2D3B"/>
  <text x="48" y="224" fill="#FFFFFF" font-family="Arial, sans-serif" font-size="30" font-weight="800">Mood Counter</text>
  <text x="48" y="255" fill="#A2A7BC" font-family="Arial, sans-serif" font-size="16">A clean overview of the whole month</text>
  <path d="M102 382C122 310 174 266 215 266C256 266 308 310 328 382" stroke="#3A3E4F" stroke-width="22" stroke-linecap="round"/>
  <path d="M103 381C124 320 174 284 215 284C256 284 300 318 322 378" stroke="url(#gauge)" stroke-width="18" stroke-linecap="round"/>
  <text x="205" y="360" text-anchor="middle" fill="#FFFFFF" font-family="Arial, sans-serif" font-size="56" font-weight="800">19</text>
  <text x="205" y="392" text-anchor="middle" fill="#A2A7BC" font-family="Arial, sans-serif" font-size="18">entries</text>
  <circle cx="90" cy="404" r="8" fill="#65C466"/>
  <text x="68" y="438" fill="#65C466" font-family="Arial, sans-serif" font-size="15" font-weight="700">Great</text>
  <circle cx="205" cy="404" r="8" fill="#F4C84C"/>
  <text x="184" y="438" fill="#F4C84C" font-family="Arial, sans-serif" font-size="15" font-weight="700">Okay</text>
  <circle cx="320" cy="404" r="8" fill="#F08E44"/>
  <text x="300" y="438" fill="#F08E44" font-family="Arial, sans-serif" font-size="15" font-weight="700">Low</text>

  <rect x="24" y="494" width="382" height="186" rx="28" fill="#1A1B25" stroke="#2A2D3B"/>
  <text x="48" y="534" fill="#FFFFFF" font-family="Arial, sans-serif" font-size="30" font-weight="800">Mood Trend</text>
  <text x="48" y="565" fill="#A2A7BC" font-family="Arial, sans-serif" font-size="16">Day-by-day emotional rhythm</text>
  <path d="M56 629H374" stroke="#2A2D3B"/>
  <path d="M56 604H374" stroke="#222532"/>
  <path d="M56 654H374" stroke="#222532"/>
  <path d="M68 645C92 612 112 612 136 612C160 612 162 578 184 578C206 578 212 640 234 640C256 640 266 590 288 590C310 590 318 620 340 620C352 620 360 620 370 604" stroke="url(#line)" stroke-width="6" stroke-linecap="round" stroke-linejoin="round"/>

  <rect x="24" y="704" width="382" height="150" rx="28" fill="#1A1B25" stroke="#2A2D3B"/>
  <text x="48" y="744" fill="#FFFFFF" font-family="Arial, sans-serif" font-size="30" font-weight="800">Popular Activities</text>
  <rect x="48" y="770" width="90" height="50" rx="18" fill="#232536"/>
  <text x="76" y="802" fill="#FFFFFF" font-family="Arial, sans-serif" font-size="18">🚶 8x</text>
  <rect x="148" y="770" width="90" height="50" rx="18" fill="#232536"/>
  <text x="176" y="802" fill="#FFFFFF" font-family="Arial, sans-serif" font-size="18">☕ 6x</text>
  <rect x="248" y="770" width="120" height="50" rx="18" fill="#232536"/>
  <text x="276" y="802" fill="#FFFFFF" font-family="Arial, sans-serif" font-size="18">📚 5x</text>

  <rect x="36" y="884" width="280" height="28" rx="14" fill="#F2F2F7"/>

  <defs>
    <linearGradient id="gauge" x1="103" y1="381" x2="322" y2="381" gradientUnits="userSpaceOnUse">
      <stop stop-color="#65C466"/>
      <stop offset="0.5" stop-color="#F4C84C"/>
      <stop offset="1" stop-color="#F08E44"/>
    </linearGradient>
    <linearGradient id="line" x1="68" y1="645" x2="370" y2="604" gradientUnits="userSpaceOnUse">
      <stop stop-color="#F4C84C"/>
      <stop offset="0.6" stop-color="#B6D44A"/>
      <stop offset="1" stop-color="#65C466"/>
    </linearGradient>
  </defs>
</svg>
